<?xml version="1.0" encoding="utf-8"?>
<!-- Generator: Adobe Illustrator 17.0.0, SVG Export Plug-In . SVG Version: 6.00 Build 0)  -->
<!DOCTYPE svg PUBLIC "-//W3C//DTD SVG 1.1//EN" "http://www.w3.org/Graphics/SVG/1.1/DTD/svg11.dtd">
<svg version="1.1" id="Layer_1" xmlns="http://www.w3.org/2000/svg" xmlns:xlink="http://www.w3.org/1999/xlink" x="0px" y="0px"
	 width="80px" height="80px" viewBox="-37.638 20 80 80" enable-background="new -37.638 20 80 80" xml:space="preserve">
<g>
	<rect x="-37.638" y="20" fill="#222222" width="80" height="80"/>
	<g>
		<path fill="#FFFFFF" d="M-13.249,70.793l-0.479-1.03h-1.818l-0.479,1.03h-0.316l1.578-3.307h0.275l1.561,3.307H-13.249z
			 M-14.535,68.024c-0.047-0.104-0.065-0.175-0.096-0.251h-0.012c-0.024,0.072-0.06,0.166-0.096,0.246l-0.705,1.535h1.613
			L-14.535,68.024z"/>
		<path fill="#FFFFFF" d="M-6.367,70.791l-0.557-0.969c-0.203-0.36-0.395-0.505-0.778-0.505h-0.519v1.474h-0.288v-3.306h1.16
			c0.801,0,1.19,0.386,1.19,0.86c0,0.523-0.43,0.827-0.986,0.906v0.01c0.174,0.056,0.317,0.193,0.485,0.477l0.622,1.053
			C-6.038,70.791-6.367,70.791-6.367,70.791z M-7.438,67.693h-0.783v1.418h0.723c0.61,0,1.04-0.26,1.04-0.742
			C-6.458,67.947-6.81,67.693-7.438,67.693"/>
		<path fill="#FFFFFF" d="M1.244,70.793l-0.479-1.03h-1.818l-0.479,1.03h-0.316l1.578-3.307h0.275l1.561,3.307H1.244z
			 M-0.041,68.024c-0.047-0.104-0.065-0.175-0.096-0.251h-0.012c-0.024,0.072-0.06,0.166-0.096,0.246l-0.705,1.535h1.613
			L-0.041,68.024z"/>
		<path fill="#FFFFFF" d="M7.109,70.791H5.985v-3.306h1.1c0.658,0,1.076,0.302,1.076,0.765c0,0.43-0.329,0.699-0.734,0.798v0.009
			c0.531,0.038,0.938,0.316,0.938,0.789C8.364,70.367,7.922,70.791,7.109,70.791 M6.971,67.693H6.273v1.281h0.586
			c0.591,0,1.004-0.251,1.004-0.686C7.863,67.91,7.552,67.693,6.971,67.693 M6.888,69.181H6.273v1.404h0.777
			c0.718,0,1.017-0.303,1.017-0.719C8.066,69.365,7.552,69.181,6.888,69.181"/>
		<rect x="12.945" y="67.485" fill="#FFFFFF" width="0.287" height="3.306"/>
		<path fill="#FFFFFF" d="M20.742,70.793l-0.479-1.03h-1.818l-0.479,1.03H17.65l1.578-3.307h0.275l1.561,3.307H20.742z
			 M19.456,68.024c-0.047-0.104-0.065-0.175-0.096-0.251h-0.012c-0.024,0.072-0.06,0.166-0.096,0.246l-0.705,1.535h1.613
			L19.456,68.024z"/>
		<path fill="#FFFFFF" d="M28.131,55.953c-0.09-0.084-0.214-0.138-0.339-0.145c-0.04-0.001-0.079-0.001-0.119,0
			c-0.473,0.019-0.938,0.305-1.318,0.628c-0.357,0.34-0.677,0.711-0.989,1.091c-0.969,1.242-1.988,2.834-1.988,2.834l-0.058,0.081
			c0.026-0.36,0.4-1.291,0.4-1.291c0.202-0.519,0.439-1.026,0.69-1.524c0.189-0.376,0.385-0.75,0.572-1.127
			c0.069-0.141,0.063-0.301-0.001-0.431c-0.12-0.202-0.334-0.271-0.563-0.273c-0.298,0.006-0.58,0.12-0.812,0.252
			c-0.5,0.258-1.185,1.048-1.185,1.048c-0.633,0.687-1.273,1.515-1.758,2.176c-0.489,0.667-0.819,1.162-0.819,1.162
			s1.025-2.661,1.867-3.819c0.033-0.046,0.027-0.11-0.014-0.15c-0.367-0.357-0.693-0.549-1.099-0.654
			c-0.056-0.014-0.115,0.012-0.142,0.064c-1.173,2.215-1.75,4.443-1.933,5.244c-0.051,0.225-0.024,0.461,0.079,0.669
			c0.096,0.194,0.242,0.425,0.441,0.578c0.056,0.044,0.137,0.035,0.183-0.02c0.216-0.26,0.623-0.999,1.171-1.785
			c0.972-1.375,2.633-3.558,3.163-3.582c0,0-1.416,2.311-1.572,4.312c-0.004,0.051-0.013,0.289,0.026,0.507
			c0.013,0.063,0.05,0.203,0.134,0.335c0.036,0.054,0.082,0.114,0.139,0.169c0.027,0.024,0.054,0.05,0.083,0.07
			c0.124,0.091,0.298,0.063,0.388-0.061c0.948-1.291,3.264-5.276,4.046-5.342c0,0-0.114,0.205-0.279,0.534
			c-0.455,0.901-1.332,2.765-1.325,3.919c0.003,0.462,0.293,0.788,0.69,0.935c0.161,0.054,0.422,0.1,0.727-0.01
			c0.078-0.028,0.154-0.069,0.225-0.111c0.075-0.042,0.148-0.09,0.22-0.141c0.037-0.026,0.073-0.052,0.107-0.081
			c0.022-0.015,0.082-0.056,0.054-0.09c-0.01-0.013-0.029-0.013-0.044-0.009c-0.775,0.232-0.827-0.365-0.827-0.365l0.001-0.001
			c-0.009-0.051-0.014-0.111-0.014-0.184c0.013-1.168,1.442-3.726,1.873-4.89C28.286,56.293,28.281,56.096,28.131,55.953"/>
		<path fill="#FFFFFF" d="M16.966,59.584c-0.042,0.119-0.221,0.587-0.539,1.084C16.658,60.335,16.835,59.969,16.966,59.584"/>
		<path fill="#FFFFFF" d="M17.498,56.725c-0.077,0-0.157,0.013-0.235,0.013c0,0-0.317-0.349-0.728-0.569
			c-0.961-0.379-1.942,0.635-2.091,0.796c-0.853,0.953-1.429,2.282-1.429,3.42c0,0.395,0.061,0.8,0.233,1.157
			c0.166,0.348,0.439,0.631,0.786,0.786c0,0,0.059,0.032,0.169,0.061c0.819,0.229,1.734-0.296,2.321-0.824
			c0.362-0.326,0.681-0.708,0.942-1.118c0.022-0.033,0.042-0.067,0.06-0.1c0.427-0.711,0.656-1.537,0.656-2.373
			C18.181,57.125,17.963,56.725,17.498,56.725 M17.24,57.958c-0.008,0.54-0.093,1.084-0.264,1.597c0,0-0.004,0.01-0.01,0.029
			c-0.131,0.384-0.31,0.751-0.539,1.084c-0.214,0.335-0.49,0.682-0.829,0.942c0.006,0.013-0.187,0.134-0.207,0.147
			c-0.06,0.037-0.123,0.073-0.187,0.104c-0.088,0.042-0.18,0.079-0.276,0.101c-0.106,0.026-0.224,0.037-0.329-0.001
			c-0.12-0.043-0.194-0.152-0.241-0.267c-0.078-0.203-0.116-0.426-0.116-0.644c0-0.702,0.453-1.882,1.047-2.691
			c0.425-0.573,1.03-1.143,1.782-1.369c0.118,0.188,0.169,0.441,0.169,0.889C17.24,57.905,17.24,57.931,17.24,57.958"/>
		<path fill="#FFFFFF" d="M16.976,59.554L16.976,59.554c-0.004,0.01-0.006,0.019-0.01,0.029
			C16.972,59.565,16.976,59.554,16.976,59.554"/>
		<polygon fill="#FFFFFF" points="14.895,61.967 14.901,61.965 14.895,61.966 		"/>
		<path fill="#FFFFFF" d="M11.44,55.825c-2.279,0-4.031,2.515-3.921,4.617c0.033,0.644,0.265,1.356,0.829,1.726
			c1.153,0.756,2.666-0.336,3.449-1.155c0.04-0.041,0.078-0.083,0.115-0.125c0.009-0.078-0.041-0.21-0.1-0.266
			c-0.059-0.055-0.769,0.477-0.852,0.534c-0.436,0.293-1.045,0.7-1.556,0.537c-0.736-0.233-0.609-1.157-0.422-1.79
			c0.27-0.919,0.793-1.808,1.475-2.517c0.264-0.274,0.567-0.521,0.906-0.678c0.125-0.059,0.298-0.124,0.47-0.157
			c0.003,0,0.006-0.001,0.01-0.001c0.01-0.001,0.024-0.004,0.041-0.006c0.033-0.004,0.064-0.006,0.095-0.008
			c0.06-0.004,0.132-0.003,0.205,0.006c0.418,0.074,0.145,0.649,0.042,0.838c-0.019,0.037-0.012,0.083,0.02,0.11
			c0.215,0.188,0.439,0.226,0.548,0.233c0.04,0.003,0.077-0.02,0.09-0.059c0.059-0.166,0.101-0.342,0.12-0.517
			C13.093,56.298,12.331,55.825,11.44,55.825"/>
		<path fill="#FFFFFF" d="M7.665,56.083c-0.088-0.133-0.201-0.206-0.328-0.239c-0.299-0.078-0.669,0.073-0.934,0.224
			c-0.502,0.258-1.186,1.048-1.186,1.048c-0.209,0.228-0.731,1.008-0.98,1.329c-0.008,0.01-0.024,0.001-0.019-0.012
			c0.416-0.972,0.949-1.816,0.949-1.816c0.033-0.046,0.027-0.109-0.014-0.148c-0.366-0.358-0.693-0.549-1.098-0.654
			c-0.058-0.014-0.116,0.012-0.145,0.064c-1.172,2.213-1.749,4.442-1.932,5.243c-0.051,0.226-0.024,0.462,0.079,0.669
			c0.1,0.202,0.253,0.444,0.467,0.597c0.058,0.042,0.141,0.017,0.161-0.052c0.077-0.244,0.168-0.508,0.269-0.783
			c0.024-0.061,0.59-1.419,1.602-2.799c0.745-0.937,1.479-1.741,1.799-1.757c0,0,0.34-0.001,0.225,0.45
			c-0.028,0.106,0.019,0.219,0.116,0.27c0.127,0.067,0.292,0.145,0.398,0.159c0.027,0.004,0.054-0.01,0.068-0.035
			c0,0,0.363-0.677,0.479-0.905C7.767,56.673,7.837,56.344,7.665,56.083"/>
		<path fill="#FFFFFF" d="M-0.058,56.032c-0.006-0.005-0.051-0.043-0.132-0.084C-0.145,55.976-0.102,56.004-0.058,56.032"/>
		<path fill="#FFFFFF" d="M2.291,56.316c-0.228-0.252-0.626-0.386-0.897-0.452c-0.035-0.009-0.07-0.008-0.104,0.001
			c-0.022,0.005-0.044,0.014-0.063,0.027c-0.063,0.045-0.374,0.676-0.421,0.789c-0.027,0.064-0.044,0.104-0.044,0.104
			s-0.34,0.646-0.693,1.323c-0.307,0.586-0.622,1.192-0.747,1.442c-0.551,1.102-0.977,1.739-1.36,2.03
			c-0.009,0.008-0.018,0.014-0.027,0.02c-0.01,0.006-0.02,0.014-0.031,0.02c-0.003,0.003-0.005,0.005-0.009,0.006
			c-0.055,0.037-0.111,0.068-0.165,0.091c-0.241,0.093-0.34-0.052-0.379-0.151c-0.009-0.023-0.017-0.047-0.023-0.075
			c-0.31-1.479,1.686-4.623,3.234-4.867c-0.345-0.421-0.621-0.592-0.621-0.592s0,0-0.001,0c-0.042-0.029-0.086-0.06-0.132-0.084
			c-0.912-0.48-1.922,0.678-2.412,1.291c-0.381,0.479-0.77,1.126-0.986,1.666c-0.239,0.599-0.353,1.231-0.316,1.86
			c0.009,0.166,0.028,0.339,0.068,0.509l-0.012-0.028c0.012,0.042,0.027,0.097,0.047,0.16c0.033,0.105,0.074,0.207,0.129,0.305
			c0.001,0.003,0.003,0.006,0.004,0.009c0.003,0.003,0.004,0.005,0.005,0.009c0.01,0.018,0.02,0.035,0.031,0.052l-0.004-0.009
			c0.033,0.051,0.069,0.102,0.11,0.15c0.106,0.127,0.235,0.241,0.381,0.329c0.267,0.164,0.617,0.217,0.888,0.102
			c-0.029,0.012-0.059,0.023-0.088,0.033c0.116-0.031,0.237-0.088,0.36-0.182c0,0,0.001-0.001,0.003-0.001
			c0.038-0.027,0.077-0.054,0.113-0.081c0.43-0.326,0.862-0.883,1.208-1.571c-0.073,0.316-0.123,0.569-0.155,0.745
			C-0.854,61.5-0.809,61.71-0.69,61.893c0.114,0.177,0.284,0.385,0.507,0.517c0.06,0.036,0.141,0.014,0.159-0.045h0.001
			c0,0,0.771-3.117,2.3-5.889c0.008-0.018,0.013-0.033,0.017-0.047C2.314,56.352,2.291,56.316,2.291,56.316"/>
		<polyline fill="#FFFFFF" points="-0.058,56.033 -0.058,56.033 -0.059,56.032 -0.058,56.033 		"/>
		<path fill="#FFFFFF" d="M-0.978,49.634c-0.162-0.106-0.37-0.234-0.496-0.289c-0.114-0.05-0.223-0.092-0.315-0.124
			c-0.088-0.032-0.187-0.004-0.244,0.068l-0.992,1.231l-6.777,8.81c1.128-3.141,2.387-6.3,3.756-9.475
			c0.026-0.082-0.005-0.171-0.078-0.217c-0.156-0.099-0.313-0.179-0.458-0.246c-0.1-0.046-0.194-0.086-0.278-0.118
			c-0.092-0.036-0.198,0.001-0.248,0.087c-0.212,0.366-0.577,0.98-1.067,1.739c-2.587,4.011-4.896,6.383-6.393,7.673
			c-0.55,0.464-1.425,1.143-2.448,1.722c-1.372,0.778-2.642,1.185-3.769,1.206c-0.202,0.004-0.399-0.005-0.592-0.027
			c0.031-0.044,0.059-0.092,0.079-0.143c0.192-0.466-0.142-1.044-0.745-1.293c-0.603-0.248-1.247-0.072-1.439,0.394
			c-0.115,0.279-0.032,0.591,0.141,0.828c0.344,0.473,0.999,0.614,1.542,0.705c0.301,0.051,0.605,0.074,0.91,0.07
			c0.018,0,0.036,0,0.055,0c0.274-0.005,0.56-0.032,0.85-0.078c1.022-0.161,2.12-0.576,3.259-1.226
			c1.521-0.869,2.688-1.929,3.14-2.38l0.194-0.18c0.729-0.655,1.398-1.38,2.036-2.106c0.645-0.736,1.263-1.482,1.826-2.263
			c0.34-0.471,0.679-0.94,1.007-1.412l0.21-0.311c-0.39,0.757-2.293,5.152-2.821,6.613c-0.235,0.647-0.471,1.285-0.551,1.972
			c-0.005,0.047-0.027,0.326,0.012,0.596c0.009,0.049,0.042,0.189,0.123,0.315c0,0,0.052,0.086,0.13,0.155
			c0.023,0.02,0.049,0.038,0.075,0.054c0.068,0.035,0.146,0.042,0.221-0.023c0.015-0.013,0.029-0.029,0.045-0.049
			c0.255-0.322,1.009-1.318,1.022-1.336l5.2-6.942c0,0,1.45-1.808,1.446-1.8l0.596-0.766c-0.087-0.244-3.712,7.018-4.405,9.598
			c-0.031,0.113-0.12,0.384-0.123,0.653c0.001,0.101,0.012,0.197,0.029,0.281c0.051,0.23,0.166,0.392,0.386,0.518
			c0.003,0.001,0.247,0.171,0.571,0.271c1.503-4.516,3.612-8.91,5.454-12.485C-0.855,49.808-0.888,49.692-0.978,49.634"/>
		<path fill="#FFFFFF" d="M-11.49,59.842L-11.49,59.842z"/>
	</g>
</g>
</svg>
